<mxfile host="app.diagrams.net" modified="2024-01-30T13:11:57.703Z" agent="Mozilla/5.0 (Windows NT 10.0; Win64; x64) AppleWebKit/537.36 (KHTML, like Gecko) Chrome/121.0.0.0 Safari/537.36" etag="FudZeONB0PAdFwVOy0wA" version="23.0.2" type="github">
  <diagram name="Page-1" id="Pig8UUxvZy5Hq_42J5HZ">
    <mxGraphModel dx="511" dy="947" grid="1" gridSize="10" guides="1" tooltips="1" connect="1" arrows="1" fold="1" page="1" pageScale="1" pageWidth="850" pageHeight="1100" math="0" shadow="0">
      <root>
        <mxCell id="0" />
        <mxCell id="1" parent="0" />
        <mxCell id="jddcLoo3AmfTPQosF4cc-1" value="START" style="ellipse;whiteSpace=wrap;html=1;" vertex="1" parent="1">
          <mxGeometry x="40" y="40" width="120" height="80" as="geometry" />
        </mxCell>
        <mxCell id="jddcLoo3AmfTPQosF4cc-7" style="edgeStyle=orthogonalEdgeStyle;rounded=0;orthogonalLoop=1;jettySize=auto;html=1;" edge="1" parent="1" source="jddcLoo3AmfTPQosF4cc-2">
          <mxGeometry relative="1" as="geometry">
            <mxPoint x="100" y="310" as="targetPoint" />
          </mxGeometry>
        </mxCell>
        <mxCell id="jddcLoo3AmfTPQosF4cc-2" value="num1 = 0;&lt;br&gt;&amp;nbsp;num2 = 0; &lt;br&gt;total = 0;" style="shape=hexagon;perimeter=hexagonPerimeter2;whiteSpace=wrap;html=1;fixedSize=1;" vertex="1" parent="1">
          <mxGeometry x="40" y="180" width="120" height="70" as="geometry" />
        </mxCell>
        <mxCell id="jddcLoo3AmfTPQosF4cc-3" value="" style="endArrow=classic;html=1;rounded=0;" edge="1" parent="1">
          <mxGeometry width="50" height="50" relative="1" as="geometry">
            <mxPoint x="100" y="130" as="sourcePoint" />
            <mxPoint x="100" y="170" as="targetPoint" />
          </mxGeometry>
        </mxCell>
        <mxCell id="jddcLoo3AmfTPQosF4cc-10" style="edgeStyle=orthogonalEdgeStyle;rounded=0;orthogonalLoop=1;jettySize=auto;html=1;entryX=0.5;entryY=0;entryDx=0;entryDy=0;" edge="1" parent="1" source="jddcLoo3AmfTPQosF4cc-4" target="jddcLoo3AmfTPQosF4cc-8">
          <mxGeometry relative="1" as="geometry" />
        </mxCell>
        <mxCell id="jddcLoo3AmfTPQosF4cc-4" value="input num1,num2" style="shape=parallelogram;perimeter=parallelogramPerimeter;whiteSpace=wrap;html=1;fixedSize=1;" vertex="1" parent="1">
          <mxGeometry x="40" y="320" width="120" height="60" as="geometry" />
        </mxCell>
        <mxCell id="jddcLoo3AmfTPQosF4cc-12" style="edgeStyle=orthogonalEdgeStyle;rounded=0;orthogonalLoop=1;jettySize=auto;html=1;entryX=0.5;entryY=0;entryDx=0;entryDy=0;" edge="1" parent="1" source="jddcLoo3AmfTPQosF4cc-8" target="jddcLoo3AmfTPQosF4cc-11">
          <mxGeometry relative="1" as="geometry" />
        </mxCell>
        <mxCell id="jddcLoo3AmfTPQosF4cc-8" value="total = num1 + num2" style="rounded=0;whiteSpace=wrap;html=1;" vertex="1" parent="1">
          <mxGeometry x="40" y="440" width="120" height="60" as="geometry" />
        </mxCell>
        <mxCell id="jddcLoo3AmfTPQosF4cc-14" value="" style="edgeStyle=orthogonalEdgeStyle;rounded=0;orthogonalLoop=1;jettySize=auto;html=1;" edge="1" parent="1" source="jddcLoo3AmfTPQosF4cc-11" target="jddcLoo3AmfTPQosF4cc-13">
          <mxGeometry relative="1" as="geometry" />
        </mxCell>
        <mxCell id="jddcLoo3AmfTPQosF4cc-11" value="output total" style="shape=parallelogram;perimeter=parallelogramPerimeter;whiteSpace=wrap;html=1;fixedSize=1;" vertex="1" parent="1">
          <mxGeometry x="40" y="560" width="120" height="60" as="geometry" />
        </mxCell>
        <mxCell id="jddcLoo3AmfTPQosF4cc-13" value="END" style="ellipse;whiteSpace=wrap;html=1;" vertex="1" parent="1">
          <mxGeometry x="60" y="690" width="80" height="80" as="geometry" />
        </mxCell>
        <mxCell id="jddcLoo3AmfTPQosF4cc-15" value="PSEODOCODE&lt;br&gt;Let num1 =0, num2 = 0 and total = 0;&lt;br&gt;input num1 and num2&lt;br&gt;total = num1 and num2&lt;br&gt;output total" style="text;html=1;strokeColor=none;fillColor=none;align=center;verticalAlign=middle;whiteSpace=wrap;rounded=0;" vertex="1" parent="1">
          <mxGeometry x="270" y="100" width="390" height="200" as="geometry" />
        </mxCell>
      </root>
    </mxGraphModel>
  </diagram>
</mxfile>
